<?xml version="1.0" encoding="UTF-8"?>
<svg id="Capa_1" data-name="Capa 1" xmlns="http://www.w3.org/2000/svg" xmlns:xlink="http://www.w3.org/1999/xlink" viewBox="0 0 156.04 77.05">
  <defs>
    <linearGradient id="Cielo" x1="79.85" y1="4.5" x2="105.77" y2="49.41" gradientUnits="userSpaceOnUse">
      <stop offset="0" stop-color="#cce0f4"/>
      <stop offset=".06" stop-color="#c2dcf2"/>
      <stop offset=".17" stop-color="#a9d2ee"/>
      <stop offset=".31" stop-color="#7fc2e7"/>
      <stop offset=".46" stop-color="#46abdd"/>
      <stop offset=".57" stop-color="#1e9cd7"/>
      <stop offset=".87" stop-color="#0075be"/>
      <stop offset=".99" stop-color="#005b97"/>
    </linearGradient>
    <linearGradient id="Cielo-2" data-name="Cielo" x1="40.96" y1="14.98" x2="61.71" y2="50.92" xlink:href="#Cielo"/>
  </defs>
  <polygon points="98 5.98 98 6 98 17.99 87.63 23.97 87.63 12 87.62 11.99 77.25 6 77.25 53.91 87.62 47.93 87.63 47.93 87.63 35.94 98 29.96 98 41.92 108.37 47.91 108.37 11.99 108.37 0 98 5.98" fill="url(#Cielo)"/>
  <polygon points="66.89 23.96 66.87 23.96 66.89 23.97 66.89 47.93 56.51 53.91 46.14 59.9 35.78 53.91 46.14 47.93 56.51 41.94 56.52 41.94 56.51 41.93 56.51 6 56.52 6 66.89 11.99 66.89 23.96" fill="url(#Cielo-2)"/>
  <g>
    <polygon points="23.73 17.65 17.07 21.5 10.43 25.34 3.77 29.18 3.77 36.87 10.42 40.71 10.43 40.71 17.07 44.54 17.07 44.55 17.08 44.55 23.73 48.39 30.38 52.23 30.38 44.55 23.73 40.72 17.07 36.87 10.43 33.03 17.07 29.19 17.07 29.18 17.08 29.18 30.38 21.5 30.38 21.49 30.38 13.81 23.73 17.65" fill="none" stroke="#000" stroke-miterlimit="10" stroke-width=".25"/>
    <polygon points="23.73 17.65 17.07 21.5 10.43 25.34 3.77 29.18 3.77 36.87 10.42 40.71 10.43 40.71 17.07 44.54 17.07 44.55 17.08 44.55 23.73 48.39 30.38 52.23 30.38 44.55 23.73 40.72 17.07 36.87 10.43 33.03 17.07 29.19 17.07 29.18 17.08 29.18 30.38 21.5 30.38 21.49 30.38 13.81 23.73 17.65"/>
  </g>
  <g>
    <polygon points="144.09 25.19 144.08 25.19 137.43 21.35 137.43 21.34 137.42 21.34 130.78 17.5 124.13 13.66 124.13 21.34 130.78 25.18 137.43 29.03 144.08 32.87 137.43 36.71 137.43 36.72 137.42 36.72 124.13 44.39 124.13 44.4 124.13 52.08 130.78 48.24 137.43 44.39 144.08 40.56 150.74 36.72 150.74 29.03 144.09 25.19" fill="none" stroke="#000" stroke-miterlimit="10" stroke-width=".25"/>
    <polygon points="144.09 25.19 144.08 25.19 137.43 21.35 137.43 21.34 137.42 21.34 130.78 17.5 124.13 13.66 124.13 21.34 130.78 25.18 137.43 29.03 144.08 32.87 137.43 36.71 137.43 36.72 137.42 36.72 124.13 44.39 124.13 44.4 124.13 52.08 130.78 48.24 137.43 44.39 144.08 40.56 150.74 36.72 150.74 29.03 144.09 25.19"/>
  </g>
  <g>
    <path d="M3.74,76.86H0v-13.26h3.74c5.17,0,6.21,1.71,6.21,6.63s-1.04,6.63-6.21,6.63ZM7.14,66.91c-.44-.72-1.29-.95-2.87-.95h-1.88v8.55h1.88c1.6,0,2.45-.25,2.89-.99.32-.57.4-1.41.4-3.27s-.08-2.77-.42-3.34Z"/>
    <path d="M14.72,76.86h-2.39v-13.26h2.39v13.26Z"/>
    <path d="M27.13,69.55v7.31h-2.01v-1.23c-.68,1.06-1.63,1.39-2.79,1.39-3.93,0-5.41-3.31-5.41-6.78s1.54-6.78,5.49-6.78c2.07,0,3.25.82,4.48,2.43l-1.67,1.52c-.76-.99-1.5-1.6-2.81-1.6-2.58,0-3.1,2.36-3.1,4.43s.51,4.43,3.1,4.43c1.77,0,2.37-1.48,2.37-3.06h-2.53v-2.05h4.88Z"/>
    <path d="M31.94,76.86h-2.39v-13.26h2.39v13.26Z"/>
    <path d="M43.93,65.96h-3.82v10.9h-2.39v-10.9h-3.82v-2.36h10.03v2.36Z"/>
    <path d="M55.36,76.86h-2.58l-1.27-3.46h-4.67l-1.25,3.46h-2.58l5.09-13.26h2.15l5.13,13.26ZM50.75,71.31l-1.58-4.27-1.56,4.27h3.13Z"/>
    <path d="M64.94,76.86h-8.19v-13.26h2.38v10.96h5.81v2.3Z"/>
    <path d="M77.39,77.05c-2.79,0-4.65-1.25-5.32-3.91l2.26-.44c.4,1.48,1.56,2.07,3.06,2.07,1.12,0,2.51-.57,2.51-1.9,0-2.74-7.39-.93-7.39-5.7,0-2.51,2.26-3.72,4.5-3.72,2.36,0,3.86.87,4.88,2.94l-2.07.95c-.63-1.18-1.42-1.67-2.81-1.67-.85,0-2.11.38-2.11,1.5,0,2.32,7.39.82,7.39,5.7,0,2.7-2.43,4.18-4.9,4.18Z"/>
    <path d="M93.31,76.86h-8.97v-13.26h8.97v2.36h-6.57v2.96h5.74v2.24h-5.74v3.34h6.57v2.36Z"/>
    <path d="M102.14,71.12c.23.17.47.53.65.82l3.12,4.92h-2.77l-2.7-4.5c-.4-.68-.63-.99-1.48-.99h-.95v5.49h-2.39v-13.26h4.79c2.57,0,4.54,1.2,4.54,3.95,0,1.73-1.06,3.08-2.79,3.57ZM100.41,65.9h-2.41v3.36h2.41c1.2,0,2.13-.32,2.13-1.71s-.97-1.65-2.13-1.65Z"/>
    <path d="M117.19,63.6l-4.48,13.26h-2.28l-4.46-13.26h2.51l3.1,9.65,3.12-9.65h2.51Z"/>
    <path d="M121.2,76.86h-2.39v-13.26h2.39v13.26Z"/>
    <path d="M133.68,74.64c-1.41,1.67-2.37,2.39-4.62,2.39-3.93,0-5.68-3.25-5.68-6.8s1.73-6.8,5.68-6.8c2.03,0,3.27.7,4.54,2.24l-1.69,1.65c-.8-.91-1.56-1.54-2.85-1.54-2.51,0-3.25,2.39-3.25,4.45s.74,4.45,3.25,4.45c1.33,0,2.13-.67,2.93-1.65l1.69,1.62Z"/>
    <path d="M144.51,76.86h-8.97v-13.26h8.97v2.36h-6.57v2.96h5.74v2.24h-5.74v3.34h6.57v2.36Z"/>
    <path d="M151.14,77.05c-2.79,0-4.65-1.25-5.32-3.91l2.26-.44c.4,1.48,1.56,2.07,3.06,2.07,1.12,0,2.51-.57,2.51-1.9,0-2.74-7.39-.93-7.39-5.7,0-2.51,2.26-3.72,4.5-3.72,2.36,0,3.86.87,4.88,2.94l-2.07.95c-.63-1.18-1.42-1.67-2.81-1.67-.85,0-2.11.38-2.11,1.5,0,2.32,7.39.82,7.39,5.7,0,2.7-2.43,4.18-4.9,4.18Z"/>
  </g>
</svg>